<svg width="90" height="90" viewBox="0 0 90 90" fill="none" xmlns="http://www.w3.org/2000/svg">
<circle cx="45" cy="45" r="45" fill="#F99D1D"/>
<path d="M69.5 23.75H60.125V17.5C60.125 14.0531 57.3219 11.25 53.875 11.25H35.125C31.6781 11.25 28.875 14.0531 28.875 17.5V23.75H19.5C16.0531 23.75 13.25 26.5531 13.25 30V64.375C13.25 67.8219 16.0531 70.625 19.5 70.625H69.5C72.9469 70.625 75.75 67.8219 75.75 64.375V30C75.75 26.5531 72.9469 23.75 69.5 23.75ZM53.875 17.5V23.75H35.125V17.5H53.875ZM32 30H69.5V39.375H19.5V30H32ZM19.5 64.375V45.625H38.25V51.875H50.75V45.625H69.5L69.5031 64.375H19.5Z" fill="white"/>
</svg>
