<svg width="90" height="90" viewBox="0 0 90 90" fill="none" xmlns="http://www.w3.org/2000/svg">
<circle cx="45" cy="45" r="45" fill="#F99D1D"/>
<path d="M45 7.5C24.3225 7.5 7.5 24.3225 7.5 45C7.5 65.6775 24.3225 82.5 45 82.5C65.6775 82.5 82.5 65.6775 82.5 45C82.5 24.3225 65.6775 7.5 45 7.5ZM45 75C28.4588 75 15 61.5412 15 45C15 28.4588 28.4588 15 45 15C61.5412 15 75 28.4588 75 45C75 61.5412 61.5412 75 45 75Z" fill="white"/>
<path d="M48.75 26.25H41.25V46.5525L53.5988 58.9012L58.9012 53.5988L48.75 43.4475V26.25Z" fill="white"/>
</svg>
