<svg width="100" height="100" viewBox="0 0 100 100" fill="none" xmlns="http://www.w3.org/2000/svg">
<circle cx="50" cy="50" r="50" fill="#F99D1D"/>
<path d="M50.0002 8.33337C27.0252 8.33337 8.3335 27.025 8.3335 50C8.3335 72.975 27.0252 91.6667 50.0002 91.6667C72.9752 91.6667 91.6668 72.975 91.6668 50C91.6668 27.025 72.9752 8.33337 50.0002 8.33337ZM50.0002 83.3334C31.621 83.3334 16.6668 68.3792 16.6668 50C16.6668 31.6209 31.621 16.6667 50.0002 16.6667C68.3793 16.6667 83.3335 31.6209 83.3335 50C83.3335 68.3792 68.3793 83.3334 50.0002 83.3334Z" fill="white"/>
<path d="M41.6627 56.6125L32.0835 47.05L26.2002 52.95L41.671 68.3875L69.6127 40.4459L63.721 34.5542L41.6627 56.6125Z" fill="white"/>
</svg>
