<svg width="154" height="47" viewBox="0 0 154 47" fill="none" xmlns="http://www.w3.org/2000/svg">
<path fill-rule="evenodd" clip-rule="evenodd" d="M152.372 0.142639C153.208 0.142639 154 0.861051 154 1.6752V18.8731C154 19.1597 153.694 19.4509 153.347 19.2862L135.263 11.2737C133.753 10.6038 133.345 10.6038 131.835 11.2737L113.751 19.2862C113.405 19.4509 113.098 19.1597 113.098 18.8731V1.6752C113.098 0.861051 113.891 0.142639 114.726 0.142639H152.372Z" fill="#F59D0E"/>
<path fill-rule="evenodd" clip-rule="evenodd" d="M114.082 30.058L132.778 21.7795C133.314 21.5395 133.785 21.5395 134.321 21.7795L153.016 30.058C154.007 30.4958 153.779 31.1515 153.034 31.4803L134.717 39.7285C133.763 40.1584 133.336 40.1584 132.382 39.7285L114.065 31.4803C113.319 31.1515 113.092 30.4958 114.082 30.058Z" fill="#F59D0E"/>
<path d="M27.215 1.66132L27.0004 2.57221L18.734 31.1891C18.4472 32.2251 18.0898 33.1717 17.6602 34.0291C17.1238 35.1371 16.4977 35.9941 15.7817 36.6016C15.0661 37.2087 14.243 37.6825 13.3123 38.0216C12.3824 38.3613 11.219 38.531 9.82369 38.531C7.85499 38.531 5.85123 38.0843 3.81142 37.1913C3.13114 36.8697 2.71942 36.6016 2.57655 36.387C2.43335 36.1727 2.4155 35.9231 2.52297 35.6372L4.18677 31.6176C4.22248 31.4747 4.30285 31.3855 4.42818 31.3502C4.55353 31.3142 4.65208 31.2786 4.72351 31.2426C4.8667 31.2426 5.15277 31.3677 5.58269 31.6176C6.87113 32.3681 7.99819 32.7431 8.96451 32.7431C10.0026 32.7431 10.879 32.4397 11.5946 31.8322C12.3106 31.2251 12.8292 30.2957 13.1513 29.0454L13.6344 27.2768H10.0919C9.80517 27.2768 9.59088 27.1167 9.44702 26.7948L0.268205 2.46491L0 1.55403C0 1.23246 0.518884 1.01786 1.55665 0.91089L6.38763 0.482351C6.56655 0.446696 6.72793 0.428869 6.87113 0.428869C7.01366 0.428869 7.10329 0.428869 7.139 0.428869C7.49716 0.428869 7.71179 0.473437 7.78322 0.562908C7.85499 0.652379 7.98032 0.964371 8.15924 1.50054L12.2928 14.3619L14.5472 22.0251H14.7622L16.6406 14.3619L19.9685 1.60751C20.0046 1.39324 20.076 1.12549 20.1828 0.803921C20.2906 0.482351 20.6127 0.357555 21.1495 0.428869L26.0879 1.01786C26.8393 1.12549 27.215 1.34008 27.215 1.66132ZM56.6828 45.2295C56.6828 45.9442 56.3246 46.3015 55.6093 46.3015H50.9397C50.4383 46.3015 50.1344 46.1763 50.0269 45.9261C49.9194 45.6761 49.8659 45.4437 49.8659 45.2295V37.6198H30.5413C30.0399 37.6198 29.7356 37.4947 29.6285 37.2447C29.5214 36.9945 29.4674 36.7624 29.4674 36.5484V1.98289C29.4674 1.48271 29.5928 1.17897 29.8435 1.072C30.0938 0.964371 30.3263 0.91089 30.5413 0.91089H35.6944C36.1957 0.91089 36.4996 1.03635 36.6071 1.28594C36.7143 1.53619 36.7682 1.76829 36.7682 1.98289V31.8322H46.1619V1.98289C46.1619 1.48271 46.2873 1.17897 46.5376 1.072C46.7883 0.964371 47.0208 0.91089 47.2354 0.91089H52.3888C52.8899 0.91089 53.1941 1.03635 53.3013 1.28594C53.4087 1.53619 53.4623 1.76829 53.4623 1.98289V31.8322H55.6093C56.3246 31.8322 56.6828 32.1895 56.6828 32.9042V45.2295ZM80.6217 35.1014C80.6217 35.28 80.5682 35.4405 80.4604 35.5834C80.3532 35.726 80.1925 35.8697 79.9775 36.0123C79.0469 36.7624 77.8213 37.3699 76.3007 37.8344C74.7798 38.2989 73.2139 38.531 71.6037 38.531C67.8104 38.531 64.8043 37.4772 62.5852 35.3691C60.7601 33.6543 59.4541 31.2069 58.6664 28.0276C58.0942 25.7053 57.8078 22.9541 57.8078 19.7748C57.8078 12.3794 59.3645 7.02034 62.4781 3.6977C64.8043 1.23246 67.7919 0 71.4426 0C72.9457 0 74.3949 0.214597 75.7908 0.643136C77.1864 1.072 78.4209 1.75047 79.4944 2.67951C80.1743 3.251 80.5146 3.71586 80.5146 4.07242C80.5146 4.17972 80.425 4.41214 80.2461 4.76937L78.2598 7.77045C78.0452 8.12767 77.8481 8.30628 77.6692 8.30628C77.5263 8.30628 77.3471 8.24355 77.1328 8.11909C76.9178 7.99396 76.721 7.85959 76.5421 7.71664C75.7547 7.0735 75.0212 6.59181 74.3413 6.27024C73.6617 5.94867 72.9096 5.78789 72.0868 5.78789C70.2613 5.78789 68.8122 6.35938 67.7383 7.50236C66.9155 8.35977 66.3252 9.67311 65.9671 11.4417C65.6092 13.2097 65.4303 15.8625 65.4303 19.3994C65.4303 21.3288 65.5378 23.1327 65.7521 24.8119C66.1103 27.4554 66.7006 29.3495 67.5237 30.4925C67.989 31.1 68.6154 31.6269 69.4028 32.0732C70.1902 32.5199 71.1384 32.7431 72.2479 32.7431C73.6792 32.7431 75.1465 32.2968 76.6493 31.4037C76.8642 31.2607 77.0967 31.1175 77.3471 30.9748C77.5978 30.8315 77.8124 30.7606 77.9913 30.7606C78.242 30.7606 78.4748 30.9388 78.6894 31.2961L80.3532 34.2975C80.5321 34.6187 80.6217 34.8868 80.6217 35.1014ZM106.331 26.6875C106.331 29.4386 105.706 31.6893 104.453 33.4397C102.449 36.2262 98.9238 37.6198 93.8779 37.6198H84.1084C83.6077 37.6198 83.3035 37.4947 83.1963 37.2447C83.0888 36.9945 83.0349 36.7624 83.0349 36.5484V1.98289C83.0349 1.48271 83.1603 1.17897 83.4109 1.072C83.6613 0.964371 83.8938 0.91089 84.1084 0.91089H102.896C103.433 0.91089 103.701 1.10733 103.701 1.50054L103.594 2.03638L102.521 5.84137C102.413 6.12696 102.279 6.34155 102.118 6.48451C101.957 6.62713 101.68 6.69878 101.286 6.69878H90.3353V15.4877H94.0928C95.6673 15.4877 97.1436 15.6211 98.5214 15.8892C99.8991 16.1573 101.16 16.6842 102.306 17.47C103.451 18.2561 104.363 19.2921 105.043 20.5784C105.902 22.2218 106.331 24.2582 106.331 26.6875ZM99.0849 26.527C99.0849 24.8119 98.6199 23.5081 97.6893 22.6147C96.759 21.7213 95.1306 21.2753 92.8044 21.2753H90.3353V31.8322H92.2673C94.3432 31.8322 95.882 31.5641 96.8843 31.0283C98.3514 30.2422 99.0849 28.7417 99.0849 26.527Z" fill="#727271"/>
</svg>
